<svg xmlns="http://www.w3.org/2000/svg" width="186.523" height="186.796" viewBox="0 0 174.865 175.122"><path d="M83.021 175.032c-19.341-1.661-33.7-6.792-47.569-16.998C12.951 141.475 0 115.717 0 87.523 0 44.106 30.621 8.168 73.66 1.072c17.569-2.897 37.024.143 53.299 8.329 39.567 19.9 57.65 65.79 42.675 108.292-10.282 29.18-37.275 51.421-68.172 56.17-6.078.935-14.762 1.485-18.441 1.169z" fill="#6e8acc"/><path d="M39.22 132.012c-8.021-2.567-17.737-8.846-20.712-13.388-6.053-9.237 8.233-68.358 18.216-75.387 8.412-5.923 22.805-11.333 30.11-11.319 1.944.004-.654 1.554-6.874 4.101-10.097 4.135-21.34 10.566-20.295 11.61.311.311 3.317-.623 6.68-2.077 24.48-10.58 56.26-11.043 81.09-1.18 5.205 2.068 9.862 3.76 10.347 3.76 2.175 0-9.935-7.15-18.204-10.748-10.638-4.629-11.821-5.502-7.458-5.502 4.976 0 18.408 4.58 25.589 8.726 6.99 4.037 8.781 6.938 14.921 24.184 7.675 21.554 11.37 47.973 7.532 53.832-4.567 6.97-22.388 15.758-31.955 15.758-3.284 0-10.128-5.542-10.118-8.193.002-.65 2.413-2.171 5.355-3.381 5.705-2.346 14.64-9.08 14.64-11.035 0-.647-3.434.557-7.632 2.677-24.068 12.149-56.902 12.156-80.949.018-4.178-2.11-8-3.836-8.491-3.836-2.613 0 7.46 8.3 13.701 11.289l7.254 3.474-3.946 4.494c-4.598 5.237-7.9 5.61-18.8 2.123zm37.619-41.98c-.05-16.896-25.05-16.896-25.143.412.094 17.692 25.094 17.692 25.143-.412zm44.942.185c.009-18.081-24.991-18.081-24.858-.02-.133 17.939 24.867 17.939 24.858.02z" fill="#fdfdfd"/></svg>