<svg xmlns="http://www.w3.org/2000/svg" viewBox="0 0 1000 1000"><path d="M717.4 677c-38.1-15.9-123.4-45.4-184.7-64.3.5-11.3 6.2-24.7 11.3-35.5 7.2-15.3 16.6-41.4 21.3-68.3 13.5-18.8 23.6-44.7 30.3-77.3 7.8-39 5-57.5-2.2-73.8-.7-7 1.2-42.9 6.6-73.1 6.1-33.6-3.2-90-38.2-134.7-23.6-30-68.4-66.9-150.1-71.9l-39.4.1c-78.6 4.9-123.4 41.8-147 71.8-34.9 44.5-44.2 101-38.2 134.6 5.5 30.2 7.3 65.9 6.9 70.7-7.4 19-10.2 37.7-2.4 76.4 6.5 32.6 16.7 58.6 30.3 77.2 4.6 26.8 14 53 21.2 68.4 3.4 7.2 5.1 19.3 5.3 36.2-62.8 19.4-149.5 51-183.7 65.9C29.4 694.6 10 724 10 762.5v93c0 32.1 23.4 66.2 66.7 66.2h635.8c43.9 0 66.8-33.3 66.8-66.2v-93c-.1-35.8-24.3-69.3-61.9-85.5zm-.8 182.9c-.2.1-1.5.6-4.2.6H76.7l-5.5-5v-93c0-14 4.7-21.3 17.8-26.8 35.2-15.4 133.1-50.7 193.9-68.6 26.8-8.7 26.8-31.8 26.8-52.1 0-27.6-3.6-47.9-11.1-63.8-6.4-13.5-14.3-37.5-17.1-58.7l-1.2-9.2-6.1-7c-4.3-4.9-15.2-20.3-22.4-56.6-5.8-28.8-3-35.9-.1-43.6l2.1-7c3.7-16.7-1.3-67.6-6.4-95.2-2.5-13.9.6-53.2 26-85.8 15.9-20.2 46.7-45 100.8-48.4l35.6-.1c57.1 3.6 88 28.4 103.8 48.5 25.7 32.7 28.7 72 26.2 85.9-5.5 30.5-9.7 79.6-6.6 95l2.9 8.8c2.5 6.2 5.2 13.2-.6 42-7.3 36.2-18.2 51.8-22.5 56.8l-6 7-1.2 9c-2.8 21.3-10.9 45.3-17.1 58.7-8.5 17.9-17.2 39.4-17.2 63.1 0 20.4 0 43.5 27.9 52.4 58.9 17.4 155.2 50.6 194.2 66.9 19.3 8.3 24.4 22.6 24.4 29.1l-1.4 97.1zm135.6-426.5V295.6h-61.3v137.8H653.1v61.3h137.8v137.8h61.3V494.6H990v-61.3H852.2z"/></svg>