<svg width="450" height="400" xmlns="http://www.w3.org/2000/svg" stroke="null" vector-effect="non-scaling-stroke"><path fill="transparent" d="M-1-1h582v402H-1z"/><g fill="#fff" stroke="none"><path d="M29 129.898v140.204h79.815l119.483 98.122.071-336.448-119.5 98.122H29z"/><path d="M29 130.2v139.6h79.471l118.969 97.7.07-335-118.986 97.7H29zm244.125-16.054c-6.948-6.877-18.104-6.877-25.017.035-6.895 6.913-6.895 18.105.035 25.035v-.035c15.258 15.275 24.664 36.226 24.664 59.51 0 23.268-9.388 44.148-24.628 59.423-6.966 6.878-6.966 18.069-.036 25.017a17.632 17.632 0 0 0 12.5 5.18c4.544 0 9.07-1.732 12.517-5.18 21.605-21.57 35.007-51.537 34.989-84.44.018-32.972-13.437-62.975-35.024-84.545z" fill-opacity="null"/></g></svg>