<svg width="450" height="400" xmlns="http://www.w3.org/2000/svg" stroke="null" vector-effect="non-scaling-stroke"><path fill="transparent" d="M-1-1h582v402H-1z"/><g fill="#fff" stroke="none"><path d="M29 129.898v140.204h79.815l119.483 98.122.071-336.448-119.5 98.122H29z"/><path d="M28 129.375v141.25h80.41l120.375 98.855.072-338.96-120.393 98.855H28zm247.01-16.244c-7.03-6.958-18.318-6.958-25.313.036-6.976 6.995-6.976 18.318.036 25.33v-.035c15.438 15.456 24.955 36.655 24.955 60.214 0 23.542-9.499 44.669-24.919 60.125-7.048 6.959-7.048 18.282-.036 25.313a17.84 17.84 0 0 0 12.648 5.241 17.85 17.85 0 0 0 12.665-5.241c21.86-21.825 35.42-52.146 35.402-85.438.018-33.363-13.595-63.72-35.438-85.545zm41.055-41.037c-7.03-6.994-18.318-6.994-25.277 0-7.012 6.995-7.012 18.336 0 25.295 25.94 25.957 41.932 61.663 41.932 101.27 0 39.57-15.993 75.258-41.896 101.233-7.012 6.976-7.012 18.3 0 25.295a17.85 17.85 0 0 0 12.665 5.241c4.58 0 9.16-1.753 12.648-5.241 32.343-32.361 52.397-77.191 52.36-126.529.019-49.373-20.035-94.239-52.432-126.564z" fill-opacity="null"/></g></svg>