<svg width="450" height="400" xmlns="http://www.w3.org/2000/svg" stroke="null" vector-effect="non-scaling-stroke"><path fill="transparent" d="M-1-1h582v402H-1z"/><path fill="transparent" d="M-62.396 1.482h574.754v396.995H-62.396z" stroke-width=".988"/><path fill="#fff" d="M29.234 131.047v140.485h79.975L228.93 369.85l.072-337.12-119.74 98.317H29.234zm245.67-16.155c-6.991-6.92-18.217-6.92-25.175.036-6.938 6.956-6.938 18.219.036 25.192v-.034c15.354 15.372 24.82 36.455 24.82 59.887 0 23.414-9.448 44.426-24.785 59.799-7.01 6.92-7.01 18.182-.035 25.175a17.743 17.743 0 0 0 12.58 5.214 17.75 17.75 0 0 0 12.595-5.215c21.742-21.705 35.228-51.862 35.21-84.973.018-33.182-13.521-63.375-35.245-85.08zm40.833-40.815c-6.992-6.957-18.218-6.957-25.14 0-6.974 6.957-6.974 18.237 0 25.159 25.799 25.815 41.704 61.328 41.704 100.72 0 39.355-15.905 74.85-41.668 100.683-6.975 6.939-6.975 18.201 0 25.158a17.753 17.753 0 0 0 12.597 5.214 17.74 17.74 0 0 0 12.578-5.214c32.169-32.185 52.113-76.772 52.078-125.842.017-49.105-19.927-93.728-52.149-125.877zm38.77-38.769c-6.993-6.956-18.238-6.92-25.159.037-6.957 6.92-6.957 18.2.036 25.14h-.036c35.744 35.743 57.788 84.92 57.788 139.47 0 54.497-22.044 103.692-57.752 139.453-6.957 6.94-6.957 18.201.036 25.175 3.451 3.453 8.006 5.178 12.561 5.178s9.127-1.744 12.596-5.213c42.042-42.096 68.161-100.4 68.126-164.593.035-64.246-26.084-122.568-68.197-164.647z" stroke="none"/><path d="M29 129.898v140.204h79.815l119.483 98.122.071-336.448-119.5 98.122H29z" fill="#fff" stroke="none"/></svg>