<svg width="450" height="400" xmlns="http://www.w3.org/2000/svg" stroke="null" style="vector-effect: non-scaling-stroke;">
 <!-- Created with Method Draw - http://github.com/duopixel/Method-Draw/ -->

 <g>
  <title>background</title>
  <rect fill="transparent" id="canvas_background" height="402" width="582" y="-1" x="-1"/>
 </g>
 <g>
  <title>Layer 1</title>
  <!-- Created with Method Draw - http://github.com/duopixel/Method-Draw/ -->
  <g stroke="null" id="svg_13">
   <g stroke="null" transform="matrix(0.9875547612923623,0,0,0.9875547612923623,-3632.7909555574097,-3785.8794351229226) " id="svg_10">
    <title stroke="null" transform="translate(4.547473508864641e-13,1.0538498163223267) translate(-64.80693054199219,4.547473508864641e-13) translate(-286.3489685058594,250.5553436279297) translate(3967.5625,0) translate(0,3584.5) ">background</title>
    <rect stroke="null" x="3615.406601" y="3835.109193" width="582" height="402" id="svg_8" fill="transparent"/>
    <g stroke="null" id="svg_7" display="none">
     <rect stroke="null" id="svg_11" width="450" height="400" x="3616.406601" y="3836.109193" stroke-width="0" fill="#fff"/>
    </g>
   </g>
   <g stroke="null" transform="matrix(0.9875547612923623,0,0,0.9875547612923623,-3632.7909555574097,-3785.8794351229226) " id="svg_12">
    <title stroke="null" transform="translate(4.547473508864641e-13,1.0538498163223267) translate(-64.80693054199219,4.547473508864641e-13) translate(-286.3489685058594,250.5553436279297) translate(3967.5625,0) translate(0,3584.5) ">Layer 1</title>
    <path stroke="#fff" fill="#fff" stroke-width="0" d="m3708.192393,3966.307687l0,142.255937l80.982831,0l121.231028,99.557536l0.072065,-341.37101l-121.249044,99.557536l-81.03688,0l0,0.000001zm248.767728,-16.358712c-7.080368,-7.008303 -18.448592,-7.008303 -25.492927,0.036032c-7.026319,7.044335 -7.026319,18.448592 0.036032,25.510943l0,-0.036032c15.547983,15.565999 25.132603,36.915199 25.132603,60.642538c0,23.709323 -9.566604,44.986458 -25.09657,60.552457c-7.098384,7.008303 -7.098384,18.412559 -0.036032,25.492927c3.51316,3.51316 8.125307,5.278747 12.737455,5.278747c4.630164,0 9.242312,-1.765588 12.755472,-5.278747c22.0158,-21.979767 35.672081,-52.517231 35.654065,-86.045384c0.018016,-33.600218 -13.692314,-64.173714 -35.690098,-86.153482l0,0.000001zm41.347185,-41.329169c-7.080368,-7.044335 -18.448592,-7.044335 -25.456894,0c-7.062351,7.044335 -7.062351,18.466608 0,25.474911c26.123494,26.14151 42.229979,62.101851 42.229979,101.989724c0,39.85184 -16.106485,75.794165 -42.193947,101.953691c-7.062351,7.026319 -7.062351,18.430575 0,25.474911c3.51316,3.51316 8.125307,5.278747 12.755472,5.278747c4.612148,0 9.224296,-1.765588 12.737455,-5.278747c32.573295,-32.591311 52.769458,-77.739915 52.733425,-127.428602c0.018016,-49.72472 -20.178147,-94.909356 -52.80549,-127.464634l0,-0.000001zm39.257306,-39.257306c-7.080368,-7.044335 -18.466608,-7.008303 -25.474911,0.036032c-7.044335,7.008303 -7.044335,18.430575 0.036032,25.456894l-0.036032,0c36.194551,36.194551 58.516627,85.991336 58.516627,141.229013c0,55.183629 -22.322075,104.99843 -58.480594,141.210997c-7.044335,7.026319 -7.044335,18.430575 0.036032,25.492927c3.495143,3.495143 8.107291,5.242715 12.719439,5.242715s9.242312,-1.765588 12.755472,-5.278747c42.572287,-42.626336 69.020073,-101.665432 68.98404,-166.667892c0.036032,-65.056508 -26.411753,-124.113621 -69.056105,-166.72194l0,0.000001z" id="svg_6"/>
   </g>
  </g>
  <path stroke="#fff" id="svg_14" d="m29,129.89768l0,140.204638l79.815077,0l119.482904,98.121939l0.071026,-336.448515l-119.50066,98.121939l-79.868346,0z" stroke-opacity="null" stroke-width="0" fill="#fff"/>
 </g>
</svg>
