<svg width="580" height="400" xmlns="http://www.w3.org/2000/svg" stroke="null" vector-effect="non-scaling-stroke"><path fill="none" d="M-1-1h582v402H-1z"/><g stroke="#000"><path fill="#6D97AB" stroke-width="3" d="M78.5 84.11h423v231.781h-423z"/><ellipse stroke-width="3" stroke-opacity="null" cx="240" cy="50.5" rx="16" ry="16"/><ellipse stroke-width="3" stroke-opacity="null" cx="340" cy="50.5" rx="16" ry="16"/><ellipse stroke-width="3" stroke-opacity="null" cx="290" cy="50.5" rx="16" ry="16"/><path fill="none" stroke-width="1.133" d="M171.547 141.91c10.422 5.914 11.457 6.431 13.379 6.431 1.922 0 5.248-1.182 5.248-6.43 0-5.248-3.326-6.43-5.248-6.43-1.922 0-2.957.517-13.379 6.43zm-.148 0c-10.422 5.914-11.457 6.431-13.378 6.431-1.922 0-5.249-1.182-5.249-6.43 0-5.248 3.327-6.43 5.249-6.43 1.921 0 2.956.517 13.378 6.43z" transform="matrix(6.05467 0 0 6.54513 -748.548 -726.049)"/></g></svg>