<svg xmlns="http://www.w3.org/2000/svg" viewBox="0 0 16 16"><path d="M13.824 4.827a1.659 1.659 0 0 0-1.202-.486h-1.488l-.339-.88a1.207 1.207 0 0 0-.461-.546 1.205 1.205 0 0 0-.688-.23h-3.4c-.234 0-.464.077-.687.23a1.21 1.21 0 0 0-.462.547l-.339.88H3.27c-.469 0-.87.16-1.202.485a1.577 1.577 0 0 0-.498 1.17v5.798c0 .457.166.848.498 1.171a1.66 1.66 0 0 0 1.202.486h9.35c.47 0 .87-.162 1.202-.486.332-.323.498-.714.498-1.17V5.997c0-.457-.166-.848-.498-1.171m-3.775 6.118a2.901 2.901 0 0 1-2.102.85c-.82 0-1.52-.284-2.102-.85-.582-.568-.874-1.25-.874-2.048s.291-1.481.874-2.048A2.901 2.901 0 0 1 7.945 6c.82 0 1.519.283 2.102.85.582.568.873 1.25.873 2.048s-.29 1.48-.873 2.048M7.945 7.033c-.527 0-.978.182-1.352.547a1.772 1.772 0 0 0-.562 1.317c0 .513.188.952.562 1.317.374.364.825.546 1.352.546.527 0 .977-.182 1.351-.546.375-.365.562-.804.562-1.317 0-.514-.187-.953-.562-1.317a1.867 1.867 0 0 0-1.351-.547" fill="#fff"/></svg>