<svg xmlns="http://www.w3.org/2000/svg" viewBox="0 0 1000 1000"><path d="M586.34 12.86c-2.88 1.92-24.8 27.87-48.64 57.86-39.02 49.02-43.25 54.98-43.25 61.52 0 4.04 1.35 9.23 3.08 11.53 1.92 2.88 62.48 34.22 166.28 86.12l163.22 81.51h14.03c7.88 0 18.07-1.35 23.07-3.08 11.53-3.84 27.11-17.88 33.64-30.37l5.19-9.8.58-60.94.58-60.94-5.38-5.77c-4.23-4.61-35.56-18.84-149.56-67.67C669.98 39 601.93 10.74 598.27 10.16c-4.43-.57-8.47.39-11.93 2.7zM344.51 210.28c-56.52 21.34-107.46 41.33-112.84 44.21-19.8 10.77-29.41 23.84-76.9 103.04-24.41 40.75-46.71 78.63-49.6 84.39-10.57 21.15-12.3 53.06-4.23 76.13 3.08 8.84 64.4 131.68 65.55 131.68.58 0 3.84-5.38 7.31-11.73 11.53-22.11 26.53-34.8 73.05-62.29 39.41-23.45 41.72-24.99 40.75-29.61-2.88-13.46-9.23-29.41-16.15-41.33-4.23-7.3-7.5-13.46-7.3-13.65.38-.19 9.8-5.19 21.34-11.15 25.76-13.65 45.75-26.91 60.75-40.95l11.73-10.76 8.07 4.81c11.53 6.54 40.75 17.88 54.02 20.76 5.96 1.34 10.96 2.69 10.96 3.08 0 .38-4.23 5.96-9.42 12.69-13.84 17.7-35.18 51.15-41.72 65.37-5.38 11.73-6.15 12.69-19.42 19.42-7.69 4.04-25.95 14.99-40.37 24.41-14.61 9.61-40.37 25.18-57.09 34.99-35.18 20.38-47.87 31.53-56.71 49.79-7.31 15.76-9.61 25.95-9.8 43.83-.19 54.02 40.37 94.39 95.16 94.97 25.95.19 32.68-2.88 114.38-51.71 60.75-36.33 77.09-45.37 91.31-49.98 37.1-11.92 83.62-39.99 119.19-71.71 41.72-37.29 70.36-76.51 117.84-160.9 15.76-28.26 58.25-113.04 60.94-121.5 1.15-4.04-9.61-9.61-169.94-89.97-94.2-47.1-172.82-85.55-174.55-85.35-1.93 0-49.79 17.49-106.31 39.02z"/><path d="M153.62 764.5c-10.38 14.61-16.15 25.38-21.72 41.91-5 13.84-5.38 17.88-5.57 42.29 0 23.07.58 29.03 4.42 41.33 14.8 46.52 47.48 80.93 91.89 96.12 9.42 3.27 16.34 3.84 45.94 3.84 29.6 0 36.53-.58 45.94-3.84 34.8-11.92 65.36-38.45 81.89-71.13 14.61-29.03 19.22-64.98 11.73-94.2-2.11-8.84-4.81-16.92-5.57-17.69-.96-.96-13.84 5.58-28.64 14.42-30.37 18.07-48.06 24.61-70.17 25.95l-14.99.96v25.76c0 15.19-.96 27.49-2.11 29.99-7.5 14.61-28.64 14.61-36.14 0-1.35-2.5-2.11-15.57-2.11-32.87V838.7l-18.46-9.04c-25.18-12.5-46.14-33.06-58.63-57.29-4.61-9.42-9.03-16.92-9.8-16.92-.6.02-4.25 4.06-7.9 9.05z"/></svg>