<svg width="450" height="400" xmlns="http://www.w3.org/2000/svg" stroke="null" style="vector-effect: non-scaling-stroke;">
 <!-- Created with Method Draw - http://github.com/duopixel/Method-Draw/ -->

 <g>
  <title>background</title>
  <rect fill="transparent" id="canvas_background" height="402" width="582" y="-1" x="-1"/>
 </g>
 <g>
  <title>Layer 1</title>
  <path stroke="#fff" id="svg_14" d="m29,129.89768l0,140.204638l79.815077,0l119.482904,98.121939l0.071026,-336.448515l-119.50066,98.121939l-79.868346,0z" stroke-opacity="null" stroke-width="0" fill="#fff"/>
  <path id="svg_15" d="m29,130.199503l0,139.601002l79.471442,0l118.968483,97.699486l0.07072,-334.999974l-118.986163,97.699486l-79.524482,0zm244.124954,-16.053408c-6.948226,-6.877506 -18.104284,-6.877506 -25.01715,0.03536c-6.895186,6.912866 -6.895186,18.104284 0.03536,25.03483l0,-0.03536c15.25781,15.27549 24.663551,36.226248 24.663551,59.510762c0,23.266834 -9.388061,44.146872 -24.628191,59.422362c-6.965906,6.877506 -6.965906,18.068924 -0.03536,25.01715c3.447593,3.447593 7.973664,5.18023 12.499735,5.18023c4.543751,0 9.069822,-1.732637 12.517415,-5.18023c21.604917,-21.569557 35.00633,-51.537097 34.98865,-84.439512c0.01768,-32.973134 -13.436773,-62.976035 -35.02401,-84.545592z" fill-opacity="null" stroke-opacity="null" stroke-width="0" stroke="#fff" fill="#fff"/>
 </g>
</svg>
