<svg width="450" height="400" xmlns="http://www.w3.org/2000/svg" stroke="null" style="vector-effect: non-scaling-stroke;">
 <!-- Created with Method Draw - http://github.com/duopixel/Method-Draw/ -->

 <g>
  <title>background</title>
  <rect fill="transparent" id="canvas_background" height="402" width="582" y="-1" x="-1"/>
 </g>
 <g>
  <title>Layer 1</title>
  <!-- Created with Method Draw - http://github.com/duopixel/Method-Draw/ -->
  <path stroke="#fff" id="svg_14" d="m29,129.89768l0,140.204638l79.815077,0l119.482904,98.121939l0.071026,-336.448515l-119.50066,98.121939l-79.868346,0z" stroke-opacity="null" stroke-width="0" fill="#fff"/>
  <path stroke="#fff" id="svg_16" d="m28,129.374522l0,141.25095l80.410717,0l120.374574,98.854198l0.071556,-338.959346l-120.392463,98.854198l-80.464383,0zm247.010273,-16.243144c-7.030347,-6.958792 -18.318259,-6.958792 -25.312828,0.035778c-6.976681,6.99457 -6.976681,18.318259 0.035778,25.330717l0,-0.035778c15.438142,15.456031 24.95505,36.654407 24.95505,60.214121c0,23.541825 -9.499019,44.668645 -24.919272,60.124676c-7.048236,6.958792 -7.048236,18.282481 -0.035778,25.312828c3.48834,3.48834 8.067905,5.241455 12.64747,5.241455c4.597454,0 9.177018,-1.753115 12.665359,-5.241455c21.860266,-21.824488 35.420071,-52.146216 35.402182,-85.437504c0.017889,-33.362845 -13.595583,-63.72035 -35.43796,-85.544838zm41.055082,-41.037193c-7.030347,-6.99457 -18.318259,-6.99457 -25.277051,0c-7.012458,6.99457 -7.012458,18.336148 0,25.29494c25.938941,25.95683 41.93164,61.663124 41.93164,101.269203c0,39.570301 -15.992699,75.258706 -41.895862,101.233425c-7.012458,6.976681 -7.012458,18.30037 0,25.29494c3.48834,3.48834 8.067905,5.241455 12.665359,5.241455c4.579565,0 9.159129,-1.753115 12.64747,-5.241455c32.343176,-32.361065 52.396661,-77.19071 52.360883,-126.528365c0.017889,-49.373432 -20.035596,-94.238855 -52.432438,-126.564142z" fill-opacity="null" stroke-opacity="null" stroke-width="0" fill="#fff"/>
 </g>
</svg>
